Devon Ke Dev... Mahadev Episode of 6th August 2012
IMDB - http://www.imdb.com/title/tt2147999/

Provided by DesiRipper
Brought To You By JamMafia{TMRG} 

Details:.
ideo
ID                                       : 2
Format                                   : VC-1
Format profile                           : MP@LL
Codec ID                                 : WMV3
Codec ID/Info                            : Windows Media Video 9
Codec ID/Hint                            : WMV3
Description of the codec                 : Windows Media Video 9
Duration                                 : 25mn 32s
Bit rate mode                            : Constant
Bit rate                                 : 448 Kbps
Width                                    : 320 pixels
Height                                   : 240 pixels
Display aspect ratio                     : 4:3
Frame rate                               : 25.000 fps
Bit depth                                : 8 bits
Scan type                                : Progressive
Compression mode                         : Lossy
Bits/(Pixel*Frame)                       : 0.233
Stream size                              : 81.8 MiB (87%)

Audio
ID                                       : 1
Format                                   : WMA
Format version                           : Version 2
Codec ID                                 : 161
Codec ID/Info                            : Windows Media Audio
Description of the codec                 : Windows Media Audio 9.2 -  64 kbps, 44 kHz, stereo (A/V) 1-pass CBR
Duration                                 : 25mn 32s
Bit rate mode                            : Constant
Bit rate                                 : 64.0 Kbps
Channel(s)                               : 2 channels
Sampling rate                            : 44.1 KHz
Bit depth                                : 16 bits
Stream size                              : 11.7 MiB (12%)



Note :::::This Content is Recorded From T.V so This Rip Contains Ad-Break's... 

Greetz:.[b]
It takes 5 hours to encode

And Just 5 seconds to say thank you............

Movie Encoded my JamMafia

JamMafia FB Page: